<svg width="17" height="17" viewBox="0 0 17 17" fill="none" xmlns="http://www.w3.org/2000/svg">
                        <path d="M11.5782 6.09819C11.4327 5.6691 11.0255 5.36365 10.5455 5.36365H2.54545C2.06545 5.36365 1.66545 5.6691 1.51273 6.09819L0 10.4546V16.2727C0 16.6727 0.327273 17 0.727273 17H1.45455C1.85455 17 2.18182 16.6727 2.18182 16.2727V15.5455H10.9091V16.2727C10.9091 16.6727 11.2364 17 11.6364 17H12.3636C12.7636 17 13.0909 16.6727 13.0909 16.2727V10.4546L11.5782 6.09819ZM2.54545 13.3636C1.94182 13.3636 1.45455 12.8764 1.45455 12.2727C1.45455 11.6691 1.94182 11.1818 2.54545 11.1818C3.14909 11.1818 3.63636 11.6691 3.63636 12.2727C3.63636 12.8764 3.14909 13.3636 2.54545 13.3636ZM10.5455 13.3636C9.94182 13.3636 9.45455 12.8764 9.45455 12.2727C9.45455 11.6691 9.94182 11.1818 10.5455 11.1818C11.1491 11.1818 11.6364 11.6691 11.6364 12.2727C11.6364 12.8764 11.1491 13.3636 10.5455 13.3636ZM1.45455 9.72728L2.54545 6.45456H10.5455L11.6364 9.72728H1.45455Z" fill="#373737"></path>
                        <path d="M11.6363 10.2273C14.3225 10.2273 16.5 8.04975 16.5 5.36364C16.5 2.67752 14.3225 0.5 11.6363 0.5C8.95023 0.5 6.77271 2.67752 6.77271 5.36364C6.77271 8.04975 8.95023 10.2273 11.6363 10.2273Z" fill="#373737" stroke="white"></path>
                        <path d="M13.7879 5.03223L12.8481 5.99886L13.057 7.35214C13.057 7.40737 13.0309 7.49022 12.9787 7.51784C12.9526 7.54546 12.9265 7.54546 12.8743 7.54546C12.8481 7.54546 12.822 7.54546 12.7959 7.51784L11.6473 6.88263L10.4988 7.51784C10.4466 7.54546 10.3682 7.54546 10.316 7.49023C10.2638 7.46261 10.2377 7.37975 10.2377 7.32452L10.4466 5.97124L9.5068 5.00461C9.45459 4.94937 9.45459 4.89414 9.45459 4.81128C9.48069 4.75605 9.5329 4.70081 9.58511 4.70081L10.8642 4.50749L11.4385 3.26468C11.4907 3.15421 11.6996 3.15421 11.7518 3.26468L12.3261 4.50749L13.6052 4.70081C13.7344 4.70081 13.8833 4.93125 13.7879 5.03223Z" fill="white"></path>
                      </svg>