<svg xmlns="http://www.w3.org/2000/svg" width="18" height="25" viewBox="0 0 34 20" fill="none">
                        <path d="M11.948 16.4966C12.3729 15.1189 12.4116 13.7799 11.9995 12.428C11.2656 10.0331 9.65622 8.52671 7.28715 7.80569C6.73351 7.63831 6.12836 7.57393 5.5361 7.54818C4.23568 7.50955 3.1284 6.98166 2.13699 6.22201C1.48035 5.71987 1.31297 4.98598 1.59623 4.25208C1.86661 3.53106 2.48463 3.11904 3.30865 3.11904C4.8537 3.11904 6.39875 3.11904 7.93092 3.11904C8.79357 3.11904 8.9867 3.31217 8.9867 4.14907C8.9867 4.26495 8.9867 4.36796 8.9867 4.49671C10.5833 4.57396 11.9352 5.37224 13.3901 5.81C13.5832 5.8615 13.7248 5.92588 13.8922 5.71987C15.9265 3.42805 18.5531 2.79716 21.3986 3.89157C21.772 4.0332 22.1196 4.20058 22.4801 4.38083C22.8921 4.58684 22.9694 4.84435 22.8792 5.29499C22.8149 5.59112 22.7762 5.90013 22.7505 6.20914C22.7247 6.53102 22.905 6.72415 23.2011 6.76278C23.9737 6.86578 24.7333 6.94304 25.5702 7.03316C25.5316 6.24777 25.5058 5.50099 25.4415 4.74134C25.4286 4.62546 25.2612 4.49671 25.1453 4.41946C23.8449 3.51818 22.5445 2.62978 21.2441 1.7285C20.7677 1.39374 20.6518 1.02036 20.9222 0.659845C21.1797 0.31221 21.5402 0.273582 21.9651 0.569716C23.008 1.29074 24.0509 2.01176 25.1067 2.73278C25.1453 2.75853 25.1968 2.79716 25.2612 2.83579C25.3771 2.28214 25.3256 1.81863 24.7719 1.53537C24.6046 1.45812 24.4629 1.32936 24.3342 1.21349C24.0123 0.943102 23.9737 0.58259 24.2054 0.286456C24.45 -0.0225534 24.7977 -0.0998026 25.1324 0.14483C26.4586 1.08473 27.7461 2.10189 28.7891 3.3508C29.3684 4.0332 29.8835 4.79284 30.3212 5.56537C30.7332 6.27351 30.8749 7.07179 30.5916 7.90869C28.7762 7.3293 27.0123 7.47092 25.3384 8.34645C23.4715 9.32498 22.3127 10.8829 21.8106 12.9301C21.7591 13.1361 21.6432 13.355 21.4887 13.4837C20.1883 14.5781 18.6819 15.1833 16.9823 15.2992C16.8278 15.312 16.6089 15.4408 16.5317 15.5695C15.7334 16.8442 16.0553 16.6511 14.5746 16.6382C13.7506 16.6253 12.9394 16.5867 12.1154 16.561C12.0768 16.5352 12.0382 16.5223 11.948 16.4966ZM16.0553 8.79709C15.8622 8.59108 15.7077 8.34645 15.4888 8.23057C15.1798 8.07607 14.8836 8.23058 14.6776 8.51383C14.0596 9.35073 13.4416 10.1876 12.8364 11.0374C12.5789 11.3979 12.6433 11.8228 12.9652 12.0417C13.3 12.2734 13.712 12.1833 13.9952 11.7971C14.5231 11.076 15.0639 10.3421 15.5789 9.59537C15.7463 9.37648 15.8622 9.13185 16.0553 8.79709Z" fill="#373737"></path>
                        <path d="M33.9521 14.3593C33.9521 17.3593 31.4929 19.8443 28.5058 19.8443C25.5187 19.8443 23.0209 17.3851 23.0337 14.3851C23.0466 11.3594 25.4157 9.00317 28.274 8.91305C31.4542 8.82292 33.9521 11.2821 33.9521 14.3593ZM26.9221 10.6255C27.2569 11.1534 27.5916 11.6684 27.9135 12.1834C28.2998 12.7885 28.686 13.3937 29.0594 14.0117C29.2654 14.3593 29.1753 14.7456 28.8663 14.9387C28.5444 15.1447 28.1581 15.0546 27.9006 14.7198C27.8491 14.6426 27.7976 14.5525 27.7461 14.4752C27.0895 13.4452 26.4328 12.4152 25.7633 11.3851C24.5788 12.2091 23.832 14.5782 24.9393 16.458C26.0723 18.3765 28.5058 19.0589 30.4628 17.9902C32.4199 16.9087 33.1667 14.4752 32.1366 12.5182C31.1324 10.5611 28.7633 9.69845 26.9221 10.6255Z" fill="#373737"></path>
                        <path d="M0 14.3721C0.0257508 11.2434 2.49783 8.9516 5.43341 8.9001C8.42051 8.86147 10.9312 11.385 10.9441 14.3464C10.9441 17.3464 8.45913 19.8313 5.47204 19.8313C2.47208 19.8442 0 17.3721 0 14.3721ZM1.35192 14.3593C1.35192 16.6253 3.20597 18.4923 5.45917 18.4923C7.68661 18.4923 9.55354 16.6382 9.57929 14.3979C9.59217 12.1576 7.69948 10.2263 5.48492 10.252C3.07722 10.2778 1.39054 12.1576 1.35192 14.3593Z" fill="#373737"></path>
                        <path d="M5.43371 17.2176C7.01944 17.2176 8.30492 15.9322 8.30492 14.3464C8.30492 12.7607 7.01944 11.4752 5.43371 11.4752C3.84798 11.4752 2.5625 12.7607 2.5625 14.3464C2.5625 15.9322 3.84798 17.2176 5.43371 17.2176Z" fill="#373737"></path>
                      </svg>